<svg width="35" height="40" viewBox="0 0 35 40" fill="none" xmlns="http://www.w3.org/2000/svg">
<path d="M13.9072 33.4474C15.3345 33.437 16.7034 32.8732 17.7309 31.8724C18.7584 30.8717 19.366 29.5105 19.4283 28.0701L19.4413 1.71138H24.1792L24.1684 1.65221C24.0698 1.10713 24.0204 0.554115 24.0209 0H17.4889V26.4091C17.4566 27.3451 17.1894 28.2575 16.7125 29.0606C16.2355 29.8637 15.5644 30.5313 14.762 31.0007C13.9597 31.4701 13.0525 31.7259 12.1254 31.7442C11.1984 31.7624 10.282 31.5425 9.46216 31.105C9.96712 31.8224 10.6332 32.4088 11.4059 32.816C12.1786 33.2231 13.0358 33.4396 13.9072 33.4474Z" fill="#25F4EE"/>
<path d="M33.0909 10.7372V9.16388C31.3325 9.16356 29.6126 8.64411 28.1426 7.66943C29.416 9.14196 31.1363 10.2989 33.0909 10.7372Z" fill="#25F4EE"/>
<path d="M28.1426 7.66981C26.7023 6.00555 25.909 3.86971 25.9103 1.65918H24.1184C24.3531 2.88345 24.8306 4.04709 25.5222 5.08006C26.2137 6.11303 27.1051 6.99396 28.1426 7.66981Z" fill="#FE2C55"/>
<path d="M12.0045 20.5982C10.7679 20.5903 9.5647 21.0037 8.58941 21.7717C7.61413 22.5398 6.92372 23.6175 6.62975 24.8309C6.33578 26.0442 6.45542 27.3222 6.96935 28.4583C7.48328 29.5945 8.36147 30.5224 9.46199 31.0922C8.78166 30.152 8.41318 29.0184 8.40928 27.8538C8.40538 26.6892 8.76626 25.5532 9.44028 24.6083C10.1143 23.6635 11.0669 22.9581 12.1619 22.5933C13.2568 22.2284 14.4379 22.2227 15.5363 22.577V15.8498C15 15.7737 14.4594 15.7342 13.9179 15.7314C13.8224 15.7314 13.7292 15.7314 13.6337 15.7314H13.5903V20.813C13.0764 20.6568 12.541 20.5843 12.0045 20.5982Z" fill="#FE2C55"/>
<path d="M33.0908 10.6255H33.0561L33.0409 15.6983C29.7859 15.6952 26.6145 14.6563 23.9773 12.7291V26.1966C23.9665 28.4054 23.3593 30.5693 22.2211 32.4554C21.0828 34.3414 19.4568 35.878 17.518 36.8997C15.5792 37.9213 13.4012 38.3893 11.2186 38.2532C9.036 38.1172 6.93151 37.3822 5.13184 36.1274C6.77309 37.9127 8.90891 39.1569 11.2607 39.6977C13.6125 40.2385 16.071 40.0509 18.3156 39.1593C20.5603 38.2677 22.4868 36.7134 23.8438 34.6994C25.2009 32.6853 25.9255 30.3048 25.9232 27.8685V14.4624C28.5679 16.3819 31.7432 17.4129 34.9999 17.4096V10.8293C34.3582 10.8291 33.7184 10.7608 33.0908 10.6255Z" fill="#FE2C55"/>
<path d="M24.0209 26.1904V12.7996C26.6653 14.7196 29.8408 15.7507 33.0976 15.7468V10.6258C31.1726 10.2084 29.4339 9.17105 28.1427 7.66981C27.1113 6.9921 26.2269 6.10993 25.543 5.07675C24.8591 4.04357 24.3899 2.8809 24.1641 1.65918H19.3914V28.0683C19.3507 29.2213 18.9539 30.3325 18.2567 31.2463C17.5594 32.1601 16.5966 32.8307 15.5031 33.164C14.4097 33.4974 13.2403 33.4769 12.159 33.1054C11.0776 32.7339 10.1384 32.0299 9.473 31.0922C8.38641 30.5179 7.52185 29.5922 7.01755 28.4631C6.51325 27.3339 6.39833 26.0666 6.69118 24.8637C6.98402 23.6608 7.66771 22.5919 8.63294 21.8277C9.59816 21.0636 10.7892 20.6485 12.0155 20.6487C12.5648 20.6503 13.1105 20.7367 13.6339 20.905V15.7402C11.3207 15.7937 9.07226 16.5216 7.15935 17.8363C5.24644 19.151 3.75073 20.9964 2.85244 23.1501C1.95415 25.3039 1.69161 27.6741 2.09646 29.9751C2.50131 32.2761 3.55628 34.4098 5.13423 36.119C6.93222 37.3931 9.04199 38.1442 11.2336 38.2904C13.4251 38.4366 15.6144 37.9723 17.5626 36.9481C19.5109 35.9239 21.1434 34.3792 22.2822 32.4822C23.4211 30.5852 24.0225 28.4089 24.0209 26.1904Z" fill="white"/>
<path d="M13.623 15.8075V14.1794C10.9558 13.8114 8.24364 14.36 5.92244 15.7369C3.60123 17.1139 1.80586 19.2393 0.82496 21.7714C-0.155942 24.3035 -0.265388 27.0953 0.514217 29.6978C1.29382 32.3003 2.91718 34.5625 5.12332 36.1205L4.95628 35.9365C3.45301 34.207 2.46783 32.0812 2.11576 29.8074C1.7637 27.5336 2.05927 25.2055 2.96797 23.095C3.87667 20.9845 5.361 19.1786 7.24767 17.8882C9.13434 16.5978 11.3455 15.8762 13.623 15.8075Z" fill="#25F4EE"/>
</svg>
